<?xml version="1.0" encoding="UTF-8" standalone="no"?>
<!-- Generator: Adobe Illustrator 20.1.0, SVG Export Plug-In . SVG Version: 6.00 Build 0)  -->

<svg
   xmlns:dc="http://purl.org/dc/elements/1.1/"
   xmlns:cc="http://creativecommons.org/ns#"
   xmlns:rdf="http://www.w3.org/1999/02/22-rdf-syntax-ns#"
   xmlns:svg="http://www.w3.org/2000/svg"
   xmlns="http://www.w3.org/2000/svg"
   xmlns:sodipodi="http://sodipodi.sourceforge.net/DTD/sodipodi-0.dtd"
   xmlns:inkscape="http://www.inkscape.org/namespaces/inkscape"
   version="1.1"
   id="Шар_1"
   x="0px"
   y="0px"
   viewBox="0 0 612 139.3"
   style="enable-background:new 0 0 612 139.3;"
   xml:space="preserve"
   inkscape:version="0.91 r13725"
   sodipodi:docname="axiomatics_logo.svg"><metadata
     id="metadata155"><rdf:RDF><cc:Work
         rdf:about=""><dc:format>image/svg+xml</dc:format><dc:type
           rdf:resource="http://purl.org/dc/dcmitype/StillImage" /></cc:Work></rdf:RDF></metadata><defs
     id="defs153" /><sodipodi:namedview
     pagecolor="#ffffff"
     bordercolor="#666666"
     borderopacity="1"
     objecttolerance="10"
     gridtolerance="10"
     guidetolerance="10"
     inkscape:pageopacity="0"
     inkscape:pageshadow="2"
     inkscape:window-width="1920"
     inkscape:window-height="1027"
     id="namedview151"
     showgrid="false"
     inkscape:zoom="0.25980392"
     inkscape:cx="-623.57466"
     inkscape:cy="-49.610501"
     inkscape:window-x="-8"
     inkscape:window-y="-8"
     inkscape:window-maximized="1"
     inkscape:current-layer="Шар_1" /><style
     type="text/css"
     id="style3">
	.st0{fill:#6D6F71;}
	.st1{fill:#8FAC5A;}
	.st2{fill:#D4E16C;}
	.st3{fill:#657E40;}
</style><g
     id="g4494"><polygon
       class="st1"
       points="31.9,97.9 43.6,104.7 43.6,90.3 31.9,83.5 "
       id="polygon33"
       style="fill:#8fac5a" /><polygon
       class="st2"
       points="31.9,83.5 43.6,90.3 56.1,83.1 44.4,76.3 "
       id="polygon35"
       style="fill:#d4e16c" /><polygon
       class="st3"
       points="56.2,97.5 56.1,83.1 43.6,90.3 43.6,104.7 "
       id="polygon37"
       style="fill:#657e40" /><polygon
       class="st1"
       points="6.1,78.5 17.7,85.2 17.7,70.8 6,64.1 "
       id="polygon39"
       style="fill:#8fac5a" /><polygon
       class="st2"
       points="6,64 17.7,70.8 30.2,63.6 18.6,56.8 "
       id="polygon41"
       style="fill:#d4e16c" /><polygon
       class="st3"
       points="30.3,78 30.2,63.6 17.7,70.8 17.7,85.2 "
       id="polygon43"
       style="fill:#657e40" /><polygon
       class="st1"
       points="64.6,39.2 76.3,46 76.3,31.6 64.6,24.8 "
       id="polygon45"
       style="fill:#8fac5a" /><polygon
       class="st2"
       points="64.6,24.8 76.3,31.6 88.8,24.3 77.1,17.5 "
       id="polygon47"
       style="fill:#d4e16c" /><polygon
       class="st3"
       points="88.9,38.8 88.8,24.3 76.3,31.6 76.3,46 "
       id="polygon49"
       style="fill:#657e40" /><polygon
       class="st1"
       points="34.2,24.8 45.9,31.6 45.8,17.2 34.2,10.4 "
       id="polygon51"
       style="fill:#8fac5a" /><polygon
       class="st2"
       points="34.2,10.4 45.8,17.2 58.4,9.9 46.7,3.2 "
       id="polygon53"
       style="fill:#d4e16c" /><polygon
       class="st3"
       points="58.4,24.4 58.4,9.9 45.8,17.2 45.9,31.6 "
       id="polygon55"
       style="fill:#657e40" /><polygon
       class="st1"
       points="31.9,57.8 43.6,64.6 43.6,50.2 31.9,43.4 "
       id="polygon57"
       style="fill:#8fac5a" /><polygon
       class="st2"
       points="31.9,43.4 43.6,50.2 56.1,43 44.4,36.2 "
       id="polygon59"
       style="fill:#d4e16c" /><polygon
       class="st3"
       points="56.2,57.4 56.1,43 43.6,50.2 43.6,64.6 "
       id="polygon61"
       style="fill:#657e40" /><polygon
       class="st1"
       points="45.9,121.8 34.3,115 34.3,129.4 46,136.2 "
       id="polygon63"
       style="fill:#8fac5a" /><polygon
       class="st2"
       points="34.3,115 45.9,121.8 58.5,114.5 46.8,107.7 "
       id="polygon65"
       style="fill:#d4e16c" /><polygon
       class="st3"
       points="58.5,128.9 58.5,114.5 45.9,121.8 46,136.2 "
       id="polygon67"
       style="fill:#657e40" /><polygon
       class="st1"
       points="48.2,87.2 59.8,94 59.8,79.6 48.1,72.8 "
       id="polygon69"
       style="fill:#8fac5a" /><polygon
       class="st2"
       points="48.1,72.8 59.8,79.6 72.4,72.3 60.7,65.5 "
       id="polygon71"
       style="fill:#d4e16c" /><polygon
       class="st3"
       points="72.4,86.7 72.4,72.3 59.8,79.6 59.8,94 "
       id="polygon73"
       style="fill:#657e40" /><polygon
       class="st1"
       points="80.9,48.6 92.6,55.4 92.5,41 80.8,34.2 "
       id="polygon75"
       style="fill:#8fac5a" /><polygon
       class="st2"
       points="80.8,34.2 92.5,41 105.1,33.8 93.4,27 "
       id="polygon77"
       style="fill:#d4e16c" /><polygon
       class="st3"
       points="105.1,48.2 105.1,33.8 92.5,41 92.6,55.4 "
       id="polygon79"
       style="fill:#657e40" /><polygon
       class="st1"
       points="64.4,58 76.1,64.8 76.1,50.3 64.4,43.5 "
       id="polygon81"
       style="fill:#8fac5a" /><polygon
       class="st2"
       points="64.4,43.5 76.1,50.3 88.6,43.1 76.9,36.3 "
       id="polygon83"
       style="fill:#d4e16c" /><polygon
       class="st3"
       points="88.7,57.5 88.6,43.1 76.1,50.3 76.1,64.8 "
       id="polygon85"
       style="fill:#657e40" /><polygon
       class="st1"
       points="48.2,67.3 59.8,74.1 59.8,59.6 48.1,52.9 "
       id="polygon87"
       style="fill:#8fac5a" /><polygon
       class="st2"
       points="48.1,52.9 59.8,59.6 72.4,52.4 60.7,45.6 "
       id="polygon89"
       style="fill:#d4e16c" /><polygon
       class="st3"
       points="72.4,66.8 72.4,52.4 59.8,59.6 59.8,74.1 "
       id="polygon91"
       style="fill:#657e40" /><polygon
       class="st1"
       points="97.7,98.8 109.4,105.6 109.3,91.2 97.7,84.4 "
       id="polygon93"
       style="fill:#8fac5a" /><polygon
       class="st2"
       points="97.7,84.4 109.3,91.2 121.9,84 110.2,77.2 "
       id="polygon95"
       style="fill:#d4e16c" /><polygon
       class="st3"
       points="121.9,98.4 121.9,84 109.3,91.2 109.4,105.6 "
       id="polygon97"
       style="fill:#657e40" /><polygon
       class="st1"
       points="81.3,108.2 92.9,115 92.9,100.5 81.2,93.8 "
       id="polygon99"
       style="fill:#8fac5a" /><polygon
       class="st2"
       points="81.2,93.8 92.9,100.5 105.4,93.3 93.8,86.5 "
       id="polygon101"
       style="fill:#d4e16c" /><polygon
       class="st3"
       points="105.5,107.7 105.4,93.3 92.9,100.5 92.9,115 "
       id="polygon103"
       style="fill:#657e40" /><polygon
       class="st1"
       points="65,117.5 76.7,124.3 76.6,109.9 64.9,103.1 "
       id="polygon105"
       style="fill:#8fac5a" /><polygon
       class="st2"
       points="64.9,103.1 76.6,109.9 89.2,102.6 77.5,95.8 "
       id="polygon107"
       style="fill:#d4e16c" /><polygon
       class="st3"
       points="89.2,117 89.2,102.6 76.6,109.9 76.7,124.3 "
       id="polygon109"
       style="fill:#657e40" /><polygon
       class="st1"
       points="97.7,78.7 109.4,85.5 109.3,71.1 97.7,64.3 "
       id="polygon111"
       style="fill:#8fac5a" /><polygon
       class="st2"
       points="97.7,64.3 109.3,71.1 121.9,63.8 110.2,57 "
       id="polygon113"
       style="fill:#d4e16c" /><polygon
       class="st3"
       points="121.9,78.2 121.9,63.8 109.3,71.1 109.4,85.5 "
       id="polygon115"
       style="fill:#657e40" /><polygon
       class="st1"
       points="81.3,88 92.9,94.8 92.9,80.4 81.2,73.6 "
       id="polygon117"
       style="fill:#8fac5a" /><polygon
       class="st2"
       points="81.2,73.6 92.9,80.4 105.4,73.1 93.8,66.3 "
       id="polygon119"
       style="fill:#d4e16c" /><polygon
       class="st3"
       points="105.5,87.6 105.4,73.1 92.9,80.4 92.9,94.8 "
       id="polygon121"
       style="fill:#657e40" /><polygon
       class="st1"
       points="65,97.3 76.7,104.1 76.6,89.7 64.9,82.9 "
       id="polygon123"
       style="fill:#8fac5a" /><polygon
       class="st2"
       points="64.9,82.9 76.6,89.7 89.2,82.5 77.5,75.7 "
       id="polygon125"
       style="fill:#d4e16c" /><polygon
       class="st3"
       points="89.2,96.9 89.2,82.5 76.6,89.7 76.7,104.1 "
       id="polygon127"
       style="fill:#657e40" /><polygon
       class="st1"
       points="97.7,58.8 109.4,65.6 109.3,51.2 97.7,44.4 "
       id="polygon129"
       style="fill:#8fac5a" /><polygon
       class="st2"
       points="97.7,44.4 109.3,51.2 121.9,43.9 110.2,37.1 "
       id="polygon131"
       style="fill:#d4e16c" /><polygon
       class="st3"
       points="121.9,58.3 121.9,43.9 109.3,51.2 109.4,65.6 "
       id="polygon133"
       style="fill:#657e40" /><polygon
       class="st1"
       points="81.3,68.1 92.9,74.9 92.9,60.5 81.2,53.7 "
       id="polygon135"
       style="fill:#8fac5a" /><polygon
       class="st2"
       points="81.2,53.7 92.9,60.5 105.4,53.2 93.8,46.4 "
       id="polygon137"
       style="fill:#d4e16c" /><polygon
       class="st3"
       points="105.5,67.7 105.4,53.2 92.9,60.5 92.9,74.9 "
       id="polygon139"
       style="fill:#657e40" /><polygon
       class="st1"
       points="65,77.4 76.7,84.2 76.6,69.8 64.9,63 "
       id="polygon141"
       style="fill:#8fac5a" /><polygon
       class="st2"
       points="64.9,63 76.6,69.8 89.2,62.5 77.5,55.8 "
       id="polygon143"
       style="fill:#d4e16c" /><polygon
       class="st3"
       points="89.2,77 89.2,62.5 76.6,69.8 76.7,84.2 "
       id="polygon145"
       style="fill:#657e40" /></g><g
     id="g4553"
     style="fill:#ffffff;fill-opacity:1"><path
       class="st0"
       d="m 219.2,63.7 c 0.7,-1.9 1.5,-3.7 2.5,-5.4 l 7.6,-13.9 12.3,0 -16.1,25.8 16.6,28.3 -12.5,0 -8,-15 c -1,-1.9 -1.8,-3.9 -2.3,-6 -0.7,2.1 -1.5,4.1 -2.5,6.1 l -8,14.9 -12.5,0 16.7,-28.3 -16.3,-25.8 12.3,0 7.7,14.2 c 1.1,1.6 1.9,3.3 2.5,5.1"
       id="path13"
       inkscape:connector-curvature="0"
       style="fill:#ffffff;fill-opacity:1" /><rect
       x="248.7"
       y="44.400002"
       class="st0"
       width="11.6"
       height="54.099998"
       id="rect15"
       style="fill:#ffffff;fill-opacity:1" /><path
       class="st0"
       d="m 312.5,71.6 c 0,-10 -7,-18.2 -17,-18.2 -10,0 -17,8.2 -17,18.2 0,10 6.7,18.1 17,18.1 10.1,0 17,-8 17,-18.1 m 3.5,20 c -10.6,10.4 -27.3,11.1 -38.8,1.8 -12.1,-9.7 -14,-27.4 -4.4,-39.5 0.7,-0.9 1.4,-1.7 2.2,-2.5 11.4,-11.1 29.6,-11.1 41,0 11.1,10.9 11.2,28.7 0.3,39.8 0,0.2 -0.2,0.3 -0.3,0.4"
       id="path17"
       inkscape:connector-curvature="0"
       style="fill:#ffffff;fill-opacity:1" /><polygon
       class="st0"
       points="485.9,54.2 472.6,54.2 472.6,98.5 461,98.5 461,54.2 447.8,54.2 447.8,44.4 485.9,44.4 "
       id="polygon19"
       style="fill:#ffffff;fill-opacity:1" /><rect
       x="494"
       y="44.400002"
       class="st0"
       width="11.6"
       height="54.099998"
       id="rect21"
       style="fill:#ffffff;fill-opacity:1" /><path
       class="st0"
       d="m 546.8,52.4 c -11.6,0 -18.9,7.5 -18.9,19.1 0,11.2 6.6,18.5 17.8,18.5 6,0.1 11.8,-2.2 16.2,-6.3 l -0.1,11.9 c -4.9,2.9 -10.6,4.4 -16.3,4.3 C 528,100 516,87.8 516,71.5 c 0,-16 11.7,-28.4 29.8,-28.4 5.7,0 11.4,1.3 16.6,3.8 L 562,58.5 c -4.1,-3.9 -9.6,-6.1 -15.2,-6.1"
       id="path23"
       inkscape:connector-curvature="0"
       style="fill:#ffffff;fill-opacity:1" /><path
       class="st0"
       d="m 576,84.4 c 1.7,4 5.7,6.5 10,6.4 5.6,0 8.8,-2.9 8.8,-7.1 0,-4.8 -4.5,-5.8 -11.9,-9.6 -8,-4.2 -12.6,-8.1 -12.6,-15.7 0,-8.5 7.3,-15.3 19.1,-15.3 6.5,0 11.1,2.2 14.8,7.1 l -6.8,6.5 c -1.5,-3.1 -4.7,-4.9 -8.1,-4.7 -4.7,0 -7.7,2.7 -7.7,6.2 0,5 4.8,6.2 10.9,8.9 9.1,4.2 13.5,9.3 13.5,16.1 0,9.8 -7,16.7 -19.2,16.7 -8.4,0 -14.4,-3 -17.2,-8.3 l 6.4,-7.2 z"
       id="path25"
       inkscape:connector-curvature="0"
       style="fill:#ffffff;fill-opacity:1" /><polygon
       class="st0"
       points="391.3,98.5 379.7,43.1 359.1,76.2 339.1,42.9 326.9,98.5 337.8,98.5 342.8,69.4 358.9,98.6 375.4,69.4 380.3,98.5 "
       id="polygon27"
       style="fill:#ffffff;fill-opacity:1" /><polygon
       class="st0"
       points="166.6,86.9 169.5,77.7 158.4,77.7 165.1,63.4 181.1,98.5 191.9,98.6 164.9,43 137.9,98.6 148.8,98.5 154.2,86.9 "
       id="polygon29"
       style="fill:#ffffff;fill-opacity:1" /><polygon
       class="st0"
       points="423.5,86.9 426.4,77.7 415.4,77.7 422,63.4 438.1,98.5 448.9,98.6 421.9,43 394.9,98.6 405.7,98.5 411.1,86.9 "
       id="polygon31"
       style="fill:#ffffff;fill-opacity:1" /><polygon
       class="st0"
       points="391.2,98.5 379.6,43.1 359,76.2 339,42.9 326.8,98.5 337.8,98.5 342.8,69.4 358.9,98.6 375.4,69.4 380.3,98.5 "
       id="polygon147"
       style="fill:#ffffff;fill-opacity:1" /><polygon
       class="st0"
       points="423.5,86.9 426.4,77.7 415.3,77.7 422,63.4 438,98.5 448.9,98.6 421.9,43 394.9,98.6 405.7,98.5 411.1,86.9 "
       id="polygon149"
       style="fill:#ffffff;fill-opacity:1" /></g></svg>